<?xml version="1.0" standalone="no"?>
<!DOCTYPE svg PUBLIC "-//W3C//DTD SVG 20010904//EN"
 "http://www.w3.org/TR/2001/REC-SVG-20010904/DTD/svg10.dtd">
<svg version="1.0" xmlns="http://www.w3.org/2000/svg"
 width="1024.000000pt" height="1024.000000pt" viewBox="0 0 1024.000000 1024.000000"
 preserveAspectRatio="xMidYMid meet">

<g transform="translate(0.000000,1024.000000) scale(0.100000,-0.100000)"
fill="#000000" stroke="none">
<path d="M0 5120 l0 -5120 5120 0 5120 0 0 5120 0 5120 -5120 0 -5120 0 0
-5120z m5094 4240 c31 -12 48 -45 120 -242 32 -86 63 -164 71 -175 12 -16 35
-19 237 -24 235 -6 255 -10 285 -55 15 -24 15 -28 -1 -57 -9 -18 -76 -79 -149
-137 -169 -135 -217 -179 -217 -199 0 -9 29 -104 65 -211 36 -107 65 -207 65
-221 0 -32 -41 -69 -75 -69 -12 0 -100 54 -195 121 -96 66 -187 127 -203 135
-34 18 -11 30 -262 -145 -134 -93 -165 -111 -197 -111 -42 0 -68 27 -68 72 0
15 29 119 65 230 36 112 65 211 65 220 0 10 -63 62 -162 134 -222 161 -228
167 -228 215 0 26 7 46 20 59 19 19 33 20 258 20 215 0 240 2 254 18 8 9 48
100 89 202 67 169 101 230 128 230 5 0 21 -4 35 -10z m-741 -821 c47 -35 86
-66 86 -69 0 -3 -59 -36 -131 -75 -397 -212 -708 -477 -963 -820 -158 -212
-294 -465 -376 -698 -33 -93 -48 -121 -66 -130 -41 -18 -68 15 -149 188 -41
88 -81 167 -89 175 -13 12 -34 9 -165 -29 -145 -42 -152 -43 -170 -26 -11 10
-20 25 -20 34 0 21 111 197 206 328 412 565 973 971 1599 1157 66 19 127 34
136 32 9 -2 55 -32 102 -67z m557 -843 c262 -40 477 -150 671 -345 113 -113
182 -207 246 -336 45 -88 97 -243 108 -318 l7 -48 -57 2 c-49 2 -61 -1 -76
-20 -28 -34 -33 -84 -20 -187 45 -370 276 -657 616 -768 60 -19 218 -52 298
-61 l57 -6 0 -120 c0 -136 13 -183 55 -199 34 -13 306 -13 339 0 49 18 61 53
64 191 l4 127 51 7 c151 19 327 84 448 165 85 58 196 172 239 248 19 34 38 62
41 62 13 0 108 -99 133 -138 73 -116 106 -332 72 -475 -44 -189 -165 -318
-345 -371 -49 -14 -286 -16 -2446 -16 -2330 0 -2394 0 -2467 19 -186 48 -338
169 -416 331 -185 385 9 888 424 1100 127 65 216 84 379 83 77 -1 151 -3 165
-5 23 -3 25 0 33 60 18 145 113 373 215 518 267 378 709 568 1162 500z m-499
-2995 c120 -46 201 -123 235 -224 9 -27 14 -50 12 -53 -3 -2 -51 -16 -107 -31
-101 -26 -103 -26 -114 -7 -5 10 -31 40 -56 65 -51 52 -96 69 -181 69 -133 -1
-222 -104 -159 -184 30 -38 64 -53 236 -102 84 -25 177 -55 207 -68 144 -64
213 -195 186 -355 -25 -150 -127 -251 -297 -295 -80 -21 -246 -21 -327 0 -161
41 -287 159 -303 284 l-5 37 73 17 c145 32 130 34 169 -26 48 -72 117 -110
214 -116 39 -2 90 1 113 7 87 24 136 96 113 166 -21 64 -52 79 -300 145 -171
46 -265 105 -313 195 -32 62 -36 192 -7 268 39 105 144 186 287 222 85 21 251
14 324 -14z m3168 4 c252 -60 425 -281 439 -561 16 -352 -223 -624 -569 -650
-392 -28 -697 331 -625 736 40 223 205 412 411 471 78 23 256 24 344 4z
m-4316 -37 c14 -42 408 -1095 422 -1130 7 -17 -3 -18 -128 -18 l-136 0 -43
130 -43 130 -229 -2 -229 -3 -45 -127 -45 -128 -128 0 c-71 0 -129 3 -129 8 0
4 97 270 215 591 118 321 215 585 215 587 0 2 65 4 144 4 l144 0 15 -42z
m2417 -80 l0 -113 -163 0 -162 0 -3 -477 -2 -478 -125 0 -125 0 -2 478 -3 477
-165 1 -165 2 -3 111 -3 111 461 0 460 0 0 -112z m792 84 c76 -31 150 -99 184
-170 39 -81 46 -221 15 -303 -26 -69 -89 -142 -145 -171 -22 -11 -42 -21 -44
-23 -1 -1 51 -103 117 -226 66 -123 123 -232 126 -241 7 -17 -3 -18 -126 -18
l-134 0 -115 220 -114 220 -88 0 -88 0 0 -220 0 -221 -127 3 -128 3 -3 575
c-1 316 0 581 3 588 4 11 64 13 307 10 288 -3 306 -5 360 -26z m-3717 -1464
c136 -29 265 -129 325 -251 19 -39 29 -71 24 -76 -5 -5 -56 -20 -114 -34 -95
-24 -106 -25 -115 -10 -57 92 -73 109 -129 138 -51 25 -70 30 -135 29 -89 0
-146 -22 -211 -80 -110 -100 -147 -302 -89 -489 14 -47 32 -78 69 -118 68 -74
129 -100 235 -101 126 0 210 48 259 146 44 89 47 87 -116 90 l-143 3 0 98 0
98 265 0 265 0 -1 -98 c-2 -261 -121 -450 -330 -524 -76 -26 -239 -36 -326
-20 -102 20 -223 84 -293 155 -113 115 -165 254 -165 441 0 128 15 199 65 301
117 240 383 362 660 302z m2248 -4 c81 -21 123 -43 184 -98 52 -47 103 -132
103 -171 0 -19 -13 -25 -102 -49 -71 -19 -104 -24 -106 -16 -11 33 -73 97
-115 117 -91 46 -236 26 -281 -39 -9 -12 -16 -38 -16 -58 0 -72 41 -100 220
-150 254 -71 338 -118 387 -217 25 -51 28 -69 28 -153 0 -83 -3 -102 -28 -151
-70 -143 -216 -219 -422 -219 -111 0 -191 16 -273 56 -97 47 -187 161 -194
243 l-3 34 102 22 103 22 24 -42 c49 -82 137 -125 257 -125 115 0 189 52 189
132 0 88 -41 117 -240 172 -247 68 -308 103 -361 211 -30 61 -31 70 -27 152 3
73 9 97 33 142 48 88 139 155 253 186 67 19 212 18 285 -1z m3146 5 c141 -32
266 -146 296 -269 6 -25 3 -26 -97 -53 -118 -31 -118 -31 -118 -14 0 24 -70
95 -115 117 -38 18 -59 21 -125 19 -90 -5 -124 -22 -153 -81 -21 -43 -15 -77
20 -112 29 -29 57 -40 248 -96 209 -62 268 -96 323 -190 38 -63 44 -199 12
-282 -57 -152 -225 -247 -436 -248 -220 0 -404 109 -450 266 -9 31 -12 60 -8
64 5 4 52 17 104 29 87 19 96 19 105 4 68 -109 130 -146 252 -152 129 -5 199
37 209 126 6 49 -22 95 -73 121 -21 11 -104 38 -186 61 -217 60 -291 104 -344
204 -25 48 -30 191 -8 256 32 99 143 191 272 226 58 16 211 18 272 4z m-1096
-14 c266 -69 443 -336 424 -637 -7 -106 -47 -229 -101 -311 -47 -70 -133 -150
-198 -183 -161 -82 -403 -85 -565 -7 -89 42 -210 168 -257 266 -66 137 -80
295 -40 450 51 199 229 383 410 426 64 15 263 13 327 -4z m-2921 -580 c119
-319 217 -583 218 -587 0 -5 -60 -8 -133 -8 l-133 0 -45 130 -44 130 -225 0
-226 0 -42 -129 -43 -130 -125 -3 c-69 -2 -127 -2 -128 0 -2 1 30 93 70 205
40 111 134 373 209 581 75 209 138 383 141 388 3 5 69 7 147 6 l142 -3 217
-580z m2156 468 l3 -113 -166 0 -165 0 0 -475 0 -476 -122 3 -123 3 -3 473 -2
472 -165 0 -165 0 0 108 c0 60 3 111 6 115 3 3 207 5 453 4 l446 -2 3 -112z"/>
<path d="M7313 4482 c-108 -39 -185 -121 -217 -231 -21 -71 -21 -212 0 -282
48 -165 179 -258 348 -247 170 11 281 123 308 308 29 198 -45 371 -189 441
-65 31 -179 36 -250 11z"/>
<path d="M3096 4450 c-3 -8 -39 -115 -80 -237 l-74 -223 159 0 c87 0 159 3
159 7 0 3 -27 83 -59 177 -33 94 -69 198 -79 231 -12 37 -22 54 -26 45z"/>
<path d="M6068 4484 c-5 -4 -8 -77 -8 -162 l0 -154 128 4 c140 4 188 19 225
69 30 41 33 108 8 156 -31 61 -79 80 -226 88 -66 4 -123 4 -127 -1z"/>
<path d="M6790 2981 c-93 -29 -174 -105 -212 -200 -19 -47 -22 -75 -22 -176 0
-101 3 -129 22 -176 29 -73 91 -143 156 -177 45 -23 62 -26 151 -27 90 0 106
3 157 28 129 63 185 188 176 386 -4 87 -9 109 -37 165 -38 77 -111 147 -178
170 -48 17 -168 20 -213 7z"/>
<path d="M3689 2725 l-76 -235 159 0 c120 0 157 3 152 12 -4 6 -42 112 -84
234 l-76 223 -75 -234z"/>
</g>
</svg>
